<svg width="632" height="680" viewBox="0 0 632 680" fill="none" xmlns="http://www.w3.org/2000/svg">
<g clip-path="url(#clip0_63_225967)">
<path fill-rule="evenodd" clip-rule="evenodd" d="M340.453 122.806C291.126 74.5073 211.985 75.3407 163.686 124.667C115.213 174.172 114.482 250.458 162.386 298.34C190.408 320.15 222.067 329.669 247.516 333.596C260.313 335.572 271.243 336.085 278.87 336.111C279.309 336.113 279.738 336.113 280.154 336.111L426.5 189.765L613.678 376.943C623.441 386.706 623.441 402.535 613.678 412.298C603.915 422.061 588.086 422.061 578.322 412.298L426.5 260.476L325.616 361.359C364.98 402.325 398.244 470.548 368.982 548.517C335.022 639.004 234.138 684.828 143.651 650.868C53.164 616.908 7.33982 516.024 41.2999 425.536C46.1514 412.61 60.5634 406.063 73.4901 410.915C86.4168 415.766 92.9632 430.178 88.1117 443.105C63.8545 507.739 96.586 579.799 161.22 604.056C225.853 628.313 297.913 595.582 322.171 530.948C344.809 470.629 314.245 416.046 279.148 386.112C279.039 386.112 278.93 386.112 278.821 386.111L278.699 386.111C269.05 386.078 255.581 385.433 239.889 383.011C208.677 378.194 167.47 366.151 130.303 336.719L129.272 335.903L128.332 334.983C58.7866 266.887 60.8269 158.248 127.96 89.6864C195.579 20.6288 306.376 19.4622 375.434 87.0805C385.299 96.7403 385.466 112.569 375.806 122.434C366.146 132.299 350.318 132.466 340.453 122.806Z" fill="#F3F3FF"/>
</g>
<defs>
<clipPath id="clip0_63_225967">
<rect width="632" height="680" fill="white"/>
</clipPath>
</defs>
</svg>
