<svg width="300" height="321" viewBox="0 0 300 321" fill="none" xmlns="http://www.w3.org/2000/svg">
<mask id="path-1-inside-1_348_227884" fill="white">
<path d="M242.07 269.393C247.72 275.452 247.429 285.012 240.836 290.029C226.057 301.275 209.281 309.707 191.346 314.85C168.591 321.374 144.615 322.421 121.379 317.905C98.142 313.388 76.3042 303.436 57.6508 288.862C38.9973 274.288 24.0579 255.507 14.0538 234.053C4.04979 212.599 -0.734752 189.083 0.0913767 165.426C0.917506 141.768 7.33085 118.643 18.8071 97.939C30.2833 77.2354 46.4965 59.5418 66.1211 46.3048C81.5899 35.871 98.832 28.4397 116.947 24.3474C125.028 22.5219 132.538 28.4442 133.548 36.6667V36.6667C134.557 44.8893 128.673 52.2807 120.64 54.3075C107.214 57.6953 94.4386 63.3909 82.8969 71.176C67.1972 81.7655 54.2266 95.9204 45.0456 112.483C35.8647 129.046 30.734 147.547 30.0731 166.473C29.4122 185.398 33.2398 204.212 41.2431 221.375C49.2463 238.538 61.1979 253.563 76.1206 265.222C91.0434 276.881 108.514 284.842 127.103 288.456C145.692 292.069 164.873 291.232 183.076 286.012C196.459 282.174 209.034 276.049 220.259 267.942C226.975 263.091 236.42 263.334 242.07 269.393V269.393Z"/>
</mask>
<path d="M242.07 269.393C247.72 275.452 247.429 285.012 240.836 290.029C226.057 301.275 209.281 309.707 191.346 314.85C168.591 321.374 144.615 322.421 121.379 317.905C98.142 313.388 76.3042 303.436 57.6508 288.862C38.9973 274.288 24.0579 255.507 14.0538 234.053C4.04979 212.599 -0.734752 189.083 0.0913767 165.426C0.917506 141.768 7.33085 118.643 18.8071 97.939C30.2833 77.2354 46.4965 59.5418 66.1211 46.3048C81.5899 35.871 98.832 28.4397 116.947 24.3474C125.028 22.5219 132.538 28.4442 133.548 36.6667V36.6667C134.557 44.8893 128.673 52.2807 120.64 54.3075C107.214 57.6953 94.4386 63.3909 82.8969 71.176C67.1972 81.7655 54.2266 95.9204 45.0456 112.483C35.8647 129.046 30.734 147.547 30.0731 166.473C29.4122 185.398 33.2398 204.212 41.2431 221.375C49.2463 238.538 61.1979 253.563 76.1206 265.222C91.0434 276.881 108.514 284.842 127.103 288.456C145.692 292.069 164.873 291.232 183.076 286.012C196.459 282.174 209.034 276.049 220.259 267.942C226.975 263.091 236.42 263.334 242.07 269.393V269.393Z" stroke="#0088FF" stroke-width="60" stroke-linejoin="round" mask="url(#path-1-inside-1_348_227884)"/>
<path d="M167.514 33.383C170.904 35.205 171.051 40.014 167.778 42.0392L127.273 67.1006C124 69.1258 119.761 66.8482 119.644 63.001L118.193 15.3917C118.076 11.5445 122.167 9.01305 125.558 10.8351L167.514 33.383Z" fill="#0088FF"/>
<circle cx="210" cy="49.6605" r="15" fill="#0088FF"/>
<circle cx="253" cy="83.6605" r="15" fill="#0088FF"/>
<path d="M294.132 131.66C294.132 139.945 287.416 146.66 279.132 146.66C270.848 146.66 264.132 139.945 264.132 131.66C264.132 123.376 270.848 116.66 279.132 116.66C287.416 116.66 294.132 123.376 294.132 131.66Z" fill="#0088FF"/>
<circle cx="284" cy="187" r="15" fill="#0088FF"/>
<circle cx="267" cy="238.66" r="15" fill="#0088FF"/>
</svg>
