<svg width="300" height="301" viewBox="0 0 300 301" fill="none" xmlns="http://www.w3.org/2000/svg">
<mask id="path-1-inside-1_349_227912" fill="white">
<path d="M284.581 140.036C292.84 139.384 300.142 145.561 299.966 153.844C299.42 179.573 292.259 204.822 279.057 227.108C263.298 253.712 239.703 274.796 211.5 287.473C183.298 300.151 151.867 303.803 121.509 297.93C91.1507 292.057 63.3496 276.945 41.9104 254.664C20.4713 232.382 6.44194 204.019 1.74252 173.458C-2.95691 142.896 1.90328 111.629 15.6579 83.9357C29.4124 56.2426 51.3892 33.4768 78.5803 18.7544C101.359 6.421 126.864 0.237296 152.596 0.682808C160.879 0.826219 166.77 8.36098 165.8 16.5883V16.5883C164.831 24.8156 157.361 30.6002 149.077 30.6639C129.513 30.8144 110.201 35.7485 92.8642 45.1356C71.1114 56.9135 53.53 75.1262 42.5263 97.2807C31.5226 119.435 27.6345 144.449 31.394 168.898C35.1536 193.348 46.3771 216.038 63.5284 233.863C80.6796 251.688 102.921 263.777 127.207 268.476C151.493 273.174 176.638 270.253 199.2 260.111C221.762 249.969 240.639 233.102 253.246 211.819C263.294 194.856 268.968 175.749 269.872 156.205C270.255 147.93 276.323 140.688 284.581 140.036V140.036Z"/>
</mask>
<path d="M284.581 140.036C292.84 139.384 300.142 145.561 299.966 153.844C299.42 179.573 292.259 204.822 279.057 227.108C263.298 253.712 239.703 274.796 211.5 287.473C183.298 300.151 151.867 303.803 121.509 297.93C91.1507 292.057 63.3496 276.945 41.9104 254.664C20.4713 232.382 6.44194 204.019 1.74252 173.458C-2.95691 142.896 1.90328 111.629 15.6579 83.9357C29.4124 56.2426 51.3892 33.4768 78.5803 18.7544C101.359 6.421 126.864 0.237296 152.596 0.682808C160.879 0.826219 166.77 8.36098 165.8 16.5883V16.5883C164.831 24.8156 157.361 30.6002 149.077 30.6639C129.513 30.8144 110.201 35.7485 92.8642 45.1356C71.1114 56.9135 53.53 75.1262 42.5263 97.2807C31.5226 119.435 27.6345 144.449 31.394 168.898C35.1536 193.348 46.3771 216.038 63.5284 233.863C80.6796 251.688 102.921 263.777 127.207 268.476C151.493 273.174 176.638 270.253 199.2 260.111C221.762 249.969 240.639 233.102 253.246 211.819C263.294 194.856 268.968 175.749 269.872 156.205C270.255 147.93 276.323 140.688 284.581 140.036V140.036Z" stroke="#FF8800" stroke-width="60" stroke-linejoin="round" mask="url(#path-1-inside-1_349_227912)"/>
<circle cx="203" cy="26.6605" r="15" fill="#FF8800"/>
<circle cx="248" cy="58" r="15" fill="#FF8800"/>
<circle cx="277" cy="104.66" r="15" fill="#FF8800"/>
<path fill-rule="evenodd" clip-rule="evenodd" d="M164 80C164 71.7157 157.284 65 149 65C140.716 65 134 71.7157 134 80V139.936C133.998 140.424 134.019 140.912 134.064 141.399C134.191 142.771 134.503 144.091 134.975 145.331C135.447 146.573 136.091 147.767 136.909 148.879C137.198 149.272 137.506 149.651 137.832 150.014L200.903 220.969C206.407 227.161 215.888 227.719 222.08 222.215C228.272 216.711 228.829 207.23 223.326 201.038L164 134.297V80Z" fill="#FF8800"/>
</svg>
